<mxfile host="app.diagrams.net" modified="2023-09-16T21:42:51.738Z" agent="Mozilla/5.0 (Windows NT 10.0; Win64; x64) AppleWebKit/537.36 (KHTML, like Gecko) Chrome/116.0.0.0 Safari/537.36 Edg/116.0.1938.81" etag="UVw0rFa29SMmCSgTPPsr" version="21.7.3" type="device">
  <diagram name="Page-1" id="XB64EiZ7Dsrquv6QB79k">
    <mxGraphModel dx="1416" dy="328" grid="1" gridSize="10" guides="1" tooltips="1" connect="1" arrows="1" fold="1" page="1" pageScale="1" pageWidth="850" pageHeight="1100" math="0" shadow="0">
      <root>
        <mxCell id="0" />
        <mxCell id="1" parent="0" />
        <mxCell id="P1qTom8UIpOYgn3hr2Sn-3" value="" style="rounded=1;arcSize=10;dashed=0;fillColor=none;gradientColor=none;strokeWidth=2;" vertex="1" parent="1">
          <mxGeometry x="-320" y="470" width="920" height="460" as="geometry" />
        </mxCell>
        <mxCell id="P1qTom8UIpOYgn3hr2Sn-2" value="Cliente" style="outlineConnect=0;dashed=0;verticalLabelPosition=bottom;verticalAlign=top;align=center;html=1;shape=mxgraph.aws3.management_console;fillColor=#F58534;gradientColor=none;" vertex="1" parent="1">
          <mxGeometry x="-400" y="690" width="63" height="63" as="geometry" />
        </mxCell>
        <mxCell id="P1qTom8UIpOYgn3hr2Sn-4" value="" style="dashed=0;html=1;shape=mxgraph.aws3.cloud;fillColor=#F58536;gradientColor=none;dashed=0;" vertex="1" parent="1">
          <mxGeometry x="-300" y="450" width="52" height="36" as="geometry" />
        </mxCell>
        <mxCell id="P1qTom8UIpOYgn3hr2Sn-26" value="" style="edgeStyle=orthogonalEdgeStyle;rounded=0;orthogonalLoop=1;jettySize=auto;html=1;entryX=0;entryY=0.5;entryDx=0;entryDy=0;entryPerimeter=0;" edge="1" parent="1" source="P1qTom8UIpOYgn3hr2Sn-5" target="P1qTom8UIpOYgn3hr2Sn-6">
          <mxGeometry relative="1" as="geometry" />
        </mxCell>
        <mxCell id="P1qTom8UIpOYgn3hr2Sn-5" value="Frontend / Angular" style="outlineConnect=0;dashed=0;verticalLabelPosition=bottom;verticalAlign=top;align=center;html=1;shape=mxgraph.aws3.s3;fillColor=#E05243;gradientColor=none;" vertex="1" parent="1">
          <mxGeometry x="-259" y="675" width="76.5" height="93" as="geometry" />
        </mxCell>
        <mxCell id="P1qTom8UIpOYgn3hr2Sn-27" style="edgeStyle=orthogonalEdgeStyle;rounded=0;orthogonalLoop=1;jettySize=auto;html=1;entryX=0;entryY=0.5;entryDx=0;entryDy=0;" edge="1" parent="1" source="P1qTom8UIpOYgn3hr2Sn-6" target="P1qTom8UIpOYgn3hr2Sn-54">
          <mxGeometry relative="1" as="geometry" />
        </mxCell>
        <mxCell id="P1qTom8UIpOYgn3hr2Sn-28" style="edgeStyle=orthogonalEdgeStyle;rounded=0;orthogonalLoop=1;jettySize=auto;html=1;entryX=0;entryY=0.5;entryDx=0;entryDy=0;" edge="1" parent="1" source="P1qTom8UIpOYgn3hr2Sn-6" target="P1qTom8UIpOYgn3hr2Sn-55">
          <mxGeometry relative="1" as="geometry" />
        </mxCell>
        <mxCell id="P1qTom8UIpOYgn3hr2Sn-6" value="Classic&lt;br&gt;Load&lt;br&gt;Balancer" style="outlineConnect=0;dashed=0;verticalLabelPosition=bottom;verticalAlign=top;align=center;html=1;shape=mxgraph.aws3.classic_load_balancer;fillColor=#F58534;gradientColor=none;" vertex="1" parent="1">
          <mxGeometry x="-120" y="685.5" width="69" height="72" as="geometry" />
        </mxCell>
        <mxCell id="P1qTom8UIpOYgn3hr2Sn-7" value="" style="outlineConnect=0;dashed=0;verticalLabelPosition=bottom;verticalAlign=top;align=center;html=1;shape=mxgraph.aws3.iam;fillColor=#759C3E;gradientColor=none;" vertex="1" parent="1">
          <mxGeometry x="-289" y="638" width="30" height="52" as="geometry" />
        </mxCell>
        <mxCell id="P1qTom8UIpOYgn3hr2Sn-14" value="" style="outlineConnect=0;dashed=0;verticalLabelPosition=bottom;verticalAlign=top;align=center;html=1;shape=mxgraph.aws3.iam;fillColor=#759C3E;gradientColor=none;" vertex="1" parent="1">
          <mxGeometry x="-130" y="638" width="30" height="52" as="geometry" />
        </mxCell>
        <mxCell id="P1qTom8UIpOYgn3hr2Sn-15" value="" style="outlineConnect=0;dashed=0;verticalLabelPosition=bottom;verticalAlign=top;align=center;html=1;shape=mxgraph.aws3.iam;fillColor=#759C3E;gradientColor=none;" vertex="1" parent="1">
          <mxGeometry x="60" y="483" width="30" height="52" as="geometry" />
        </mxCell>
        <mxCell id="P1qTom8UIpOYgn3hr2Sn-17" value="" style="outlineConnect=0;dashed=0;verticalLabelPosition=bottom;verticalAlign=top;align=center;html=1;shape=mxgraph.aws3.ec2;fillColor=#F58534;gradientColor=none;" vertex="1" parent="1">
          <mxGeometry x="99.27" y="730" width="50" height="60" as="geometry" />
        </mxCell>
        <mxCell id="P1qTom8UIpOYgn3hr2Sn-18" value="" style="outlineConnect=0;dashed=0;verticalLabelPosition=bottom;verticalAlign=top;align=center;html=1;shape=mxgraph.aws3.ec2;fillColor=#F58534;gradientColor=none;" vertex="1" parent="1">
          <mxGeometry x="99.27" y="475" width="50" height="60" as="geometry" />
        </mxCell>
        <mxCell id="P1qTom8UIpOYgn3hr2Sn-20" value="" style="outlineConnect=0;dashed=0;verticalLabelPosition=bottom;verticalAlign=top;align=center;html=1;shape=mxgraph.aws3.iam;fillColor=#759C3E;gradientColor=none;" vertex="1" parent="1">
          <mxGeometry x="60.00000000000001" y="738" width="30" height="52" as="geometry" />
        </mxCell>
        <mxCell id="P1qTom8UIpOYgn3hr2Sn-34" style="edgeStyle=orthogonalEdgeStyle;rounded=0;orthogonalLoop=1;jettySize=auto;html=1;entryX=0.5;entryY=1;entryDx=0;entryDy=0;startArrow=block;startFill=1;" edge="1" parent="1" source="P1qTom8UIpOYgn3hr2Sn-21" target="P1qTom8UIpOYgn3hr2Sn-30">
          <mxGeometry relative="1" as="geometry" />
        </mxCell>
        <mxCell id="P1qTom8UIpOYgn3hr2Sn-36" style="edgeStyle=orthogonalEdgeStyle;rounded=0;orthogonalLoop=1;jettySize=auto;html=1;entryX=1;entryY=0.5;entryDx=0;entryDy=0;" edge="1" parent="1" source="P1qTom8UIpOYgn3hr2Sn-21" target="P1qTom8UIpOYgn3hr2Sn-55">
          <mxGeometry relative="1" as="geometry">
            <mxPoint x="190" y="846" as="targetPoint" />
            <Array as="points">
              <mxPoint x="466" y="720" />
              <mxPoint x="220" y="720" />
              <mxPoint x="220" y="850" />
            </Array>
          </mxGeometry>
        </mxCell>
        <mxCell id="P1qTom8UIpOYgn3hr2Sn-21" value="Amazon RDS / MySQL" style="outlineConnect=0;dashed=0;verticalLabelPosition=bottom;verticalAlign=top;align=center;html=1;shape=mxgraph.aws3.rds;fillColor=#2E73B8;gradientColor=none;" vertex="1" parent="1">
          <mxGeometry x="440" y="832" width="52" height="59" as="geometry" />
        </mxCell>
        <mxCell id="P1qTom8UIpOYgn3hr2Sn-22" value="Bucket &lt;br&gt;/ &lt;br&gt;Canciones" style="outlineConnect=0;dashed=0;verticalLabelPosition=bottom;verticalAlign=top;align=center;html=1;shape=mxgraph.aws3.bucket;fillColor=#E05243;gradientColor=none;" vertex="1" parent="1">
          <mxGeometry x="390" y="572" width="60" height="61.5" as="geometry" />
        </mxCell>
        <mxCell id="P1qTom8UIpOYgn3hr2Sn-23" value="Bucket&amp;nbsp;&lt;br&gt;/&lt;br&gt;ImÃ¡genes&lt;br&gt;" style="outlineConnect=0;dashed=0;verticalLabelPosition=bottom;verticalAlign=top;align=center;html=1;shape=mxgraph.aws3.bucket;fillColor=#E05243;gradientColor=none;" vertex="1" parent="1">
          <mxGeometry x="480" y="572" width="60" height="61.5" as="geometry" />
        </mxCell>
        <mxCell id="P1qTom8UIpOYgn3hr2Sn-25" value="" style="rounded=0;orthogonalLoop=1;jettySize=auto;html=1;entryX=0;entryY=0.5;entryDx=0;entryDy=0;entryPerimeter=0;" edge="1" parent="1" source="P1qTom8UIpOYgn3hr2Sn-2" target="P1qTom8UIpOYgn3hr2Sn-5">
          <mxGeometry relative="1" as="geometry">
            <mxPoint x="-337" y="722" as="sourcePoint" />
            <mxPoint x="-280" y="720" as="targetPoint" />
          </mxGeometry>
        </mxCell>
        <mxCell id="P1qTom8UIpOYgn3hr2Sn-35" style="edgeStyle=orthogonalEdgeStyle;rounded=0;orthogonalLoop=1;jettySize=auto;html=1;entryX=1;entryY=0.5;entryDx=0;entryDy=0;" edge="1" parent="1" source="P1qTom8UIpOYgn3hr2Sn-30" target="P1qTom8UIpOYgn3hr2Sn-54">
          <mxGeometry relative="1" as="geometry">
            <Array as="points">
              <mxPoint x="465" y="720" />
              <mxPoint x="220" y="720" />
              <mxPoint x="220" y="593" />
              <mxPoint x="189" y="593" />
            </Array>
          </mxGeometry>
        </mxCell>
        <mxCell id="P1qTom8UIpOYgn3hr2Sn-30" value="" style="swimlane;startSize=0;" vertex="1" parent="1">
          <mxGeometry x="370" y="562" width="190" height="130" as="geometry" />
        </mxCell>
        <mxCell id="P1qTom8UIpOYgn3hr2Sn-32" value="" style="outlineConnect=0;dashed=0;verticalLabelPosition=bottom;verticalAlign=top;align=center;html=1;shape=mxgraph.aws3.s3;fillColor=#E05243;gradientColor=none;" vertex="1" parent="1">
          <mxGeometry x="540" y="513.5" width="39" height="45" as="geometry" />
        </mxCell>
        <mxCell id="P1qTom8UIpOYgn3hr2Sn-31" value="" style="outlineConnect=0;dashed=0;verticalLabelPosition=bottom;verticalAlign=top;align=center;html=1;shape=mxgraph.aws3.iam;fillColor=#759C3E;gradientColor=none;" vertex="1" parent="1">
          <mxGeometry x="510" y="510" width="30" height="52" as="geometry" />
        </mxCell>
        <mxCell id="P1qTom8UIpOYgn3hr2Sn-54" value="" style="swimlane;startSize=0;" vertex="1" parent="1">
          <mxGeometry x="69.27" y="535" width="120" height="115" as="geometry" />
        </mxCell>
        <mxCell id="P1qTom8UIpOYgn3hr2Sn-52" value="Node.js" style="outlineConnect=0;dashed=0;verticalLabelPosition=bottom;verticalAlign=top;align=center;html=1;shape=mxgraph.aws3.android;fillColor=#96BF3D;gradientColor=none;" vertex="1" parent="P1qTom8UIpOYgn3hr2Sn-54">
          <mxGeometry x="23.25" width="73.5" height="84" as="geometry" />
        </mxCell>
        <mxCell id="P1qTom8UIpOYgn3hr2Sn-55" value="" style="swimlane;startSize=0;" vertex="1" parent="1">
          <mxGeometry x="69.27" y="790" width="120" height="120" as="geometry" />
        </mxCell>
        <mxCell id="P1qTom8UIpOYgn3hr2Sn-53" value="Python" style="outlineConnect=0;dashed=0;verticalLabelPosition=bottom;verticalAlign=top;align=center;html=1;shape=mxgraph.aws3.android;fillColor=#AE1F23;gradientColor=none;" vertex="1" parent="P1qTom8UIpOYgn3hr2Sn-55">
          <mxGeometry x="23.250000000000004" y="13" width="73.5" height="84" as="geometry" />
        </mxCell>
      </root>
    </mxGraphModel>
  </diagram>
</mxfile>
